<?xml version="1.0" encoding="UTF-8"?>
<svg version="1.1" xmlns="http://www.w3.org/2000/svg" width="200" height="58">
<path d="M0 0 C3.96 0 7.92 0 12 0 C12 7.26 12 14.52 12 22 C17.38472106 16.11046134 22.53579772 10.18531613 27.37109375 3.8359375 C27.90863281 3.23007813 28.44617187 2.62421875 29 2 C29.66 2 30.32 2 31 2 C31 1.34 31 0.68 31 0 C34.96 0 38.92 0 43 0 C43.07457346 5.26526855 43.12880098 10.53022455 43.16479492 15.79589844 C43.17981184 17.58436443 43.20023158 19.37279403 43.22631836 21.16113281 C43.26301615 23.74293031 43.27979745 26.32423779 43.29296875 28.90625 C43.30845261 29.69616333 43.32393646 30.48607666 43.33988953 31.29992676 C43.341722 37.44759923 42.35572065 43.10838081 38.3515625 48.0234375 C37.78179687 48.46945313 37.21203125 48.91546875 36.625 49.375 C36.06039062 49.83648437 35.49578125 50.29796875 34.9140625 50.7734375 C28.40154704 54.94676373 21.50946462 54.7264499 14 54 C10.9236368 52.97305728 8.75273594 51.761751 6 50 C5.51015625 50.65484375 5.0203125 51.3096875 4.515625 51.984375 C1.04964249 54.76146657 -2.01757811 54.44442221 -6.25 54.25 C-6.99507812 54.23195312 -7.74015625 54.21390625 -8.5078125 54.1953125 C-10.33909701 54.14835649 -12.16971649 54.07661652 -14 54 C-13.15047066 52.82995226 -12.29499479 51.6642227 -11.4375 50.5 C-10.72400391 49.52546875 -10.72400391 49.52546875 -9.99609375 48.53125 C-8 46 -8 46 -6.25610352 44.61914062 C-1.77025136 40.67447707 -0.56880037 37.1987271 -0.18299866 31.40759277 C-0.03612577 27.10282284 -0.03365717 22.80666908 -0.0625 18.5 C-0.04937811 16.70570333 -0.03313181 14.91142663 -0.01367188 13.1171875 C0.02699551 8.74419245 0.02509255 4.37309204 0 0 Z M28.4375 21.375 C26.77914204 22.88807063 26.77914204 22.88807063 27 25 C28.32 25 29.64 25 31 25 C31 23.35 31 21.7 31 20 C29.77822672 19.88989535 29.77822672 19.88989535 28.4375 21.375 Z M16 37 C15.34 38.32 14.68 39.64 14 41 C17.99896912 43.66597941 21.29687123 43.84013859 26 43 C29.08798674 40.74942433 29.08798674 40.74942433 31 38 C31 37.67 31 37.34 31 37 C26.05 37 21.1 37 16 37 Z " fill="#E51F1F" transform="translate(17,2)"/>
<path d="M0 0 C3.96 0 7.92 0 12 0 C12.07457346 5.26526855 12.12880098 10.53022455 12.16479492 15.79589844 C12.17981184 17.58436443 12.20023158 19.37279403 12.22631836 21.16113281 C12.26301615 23.74293031 12.27979745 26.32423779 12.29296875 28.90625 C12.30845261 29.69616333 12.32393646 30.48607666 12.33988953 31.29992676 C12.341722 37.44759923 11.35572065 43.10838081 7.3515625 48.0234375 C6.78179687 48.46945313 6.21203125 48.91546875 5.625 49.375 C5.06039062 49.83648437 4.49578125 50.29796875 3.9140625 50.7734375 C-2.59845296 54.94676373 -9.49053538 54.7264499 -17 54 C-20.0763632 52.97305728 -22.24726406 51.761751 -25 50 C-24.34 48.35 -23.68 46.7 -23 45 C-22.34 45 -21.68 45 -21 45 C-20.34 43.35 -19.68 41.7 -19 40 C-18.360625 40.33 -17.72125 40.66 -17.0625 41 C-13.08622718 42.2983748 -9.13039575 42.87189034 -5 42 C-2.7310191 40.5533333 -2.7310191 40.5533333 -1 38 C-0.58220029 34.98272374 -0.39520157 32.3161328 -0.390625 29.296875 C-0.37408875 28.45908508 -0.35755249 27.62129517 -0.34051514 26.75811768 C-0.29202501 24.08867063 -0.27066255 21.41979326 -0.25 18.75 C-0.22184107 16.93747132 -0.19191375 15.1249692 -0.16015625 13.3125 C-0.08626606 8.87504691 -0.03669786 4.43791023 0 0 Z " fill="#331B8C" transform="translate(48,2)"/>
<path d="M0 0 C3.96 0 7.92 0 12 0 C11.94010383 4.08491859 11.85310515 8.16613937 11.75 12.25 C11.72873047 13.98830078 11.72873047 13.98830078 11.70703125 15.76171875 C11.67480469 16.87675781 11.64257812 17.99179687 11.609375 19.140625 C11.58842773 20.16704102 11.56748047 21.19345703 11.54589844 22.25097656 C10.87106064 25.64931001 9.56707998 26.76047396 7 29 C6.5359375 30.0209375 6.5359375 30.0209375 6.0625 31.0625 C5 33 5 33 0 36 C0 24.12 0 12.24 0 0 Z " fill="#2F1688" transform="translate(17,2)"/>
<path d="M0 0 C1.9375 0.25 1.9375 0.25 4 1 C4.66 1.99 5.32 2.98 6 4 C6.66 2.68 7.32 1.36 8 0 C8.99 0 9.98 0 11 0 C11 4.62 11 9.24 11 14 C9.35 13.67 7.7 13.34 6 13 C5.67 12.34 5.34 11.68 5 11 C4.01 12.485 4.01 12.485 3 14 C1.68 14 0.36 14 -1 14 C-1.02685938 11.85423363 -1.04633088 9.70837355 -1.0625 7.5625 C-1.07410156 6.36753906 -1.08570312 5.17257812 -1.09765625 3.94140625 C-1 1 -1 1 0 0 Z " fill="#614E98" transform="translate(88,9)"/>
<path d="M0 0 C3.625 0.1875 3.625 0.1875 6.625 2.1875 C6.8125 4.5625 6.8125 4.5625 6.625 7.1875 C6.625 8.5075 6.625 9.8275 6.625 11.1875 C6.625 12.1775 6.625 13.1675 6.625 14.1875 C5.903125 14.001875 5.18125 13.81625 4.4375 13.625 C1.49360943 13.16706147 -0.49916022 13.54842449 -3.375 14.1875 C-4.375 13.1875 -4.375 13.1875 -4.5078125 10.5 C-4.50523437 9.406875 -4.50265625 8.31375 -4.5 7.1875 C-4.50257813 6.094375 -4.50515625 5.00125 -4.5078125 3.875 C-4.31073583 -0.11290441 -4.09567263 0.22753737 0 0 Z M0.625 4.1875 C0.955 4.8475 1.285 5.5075 1.625 6.1875 C1.955 5.5275 2.285 4.8675 2.625 4.1875 C1.965 4.1875 1.305 4.1875 0.625 4.1875 Z " fill="#E66263" transform="translate(152.375,29.8125)"/>
<path d="M0 0 C0.66 1.65 1.32 3.3 2 5 C-0.66666667 5 -3.33333333 5 -6 5 C-6.33 5.99 -6.66 6.98 -7 8 C-2.545 7.505 -2.545 7.505 2 7 C1.34 8.65 0.68 10.3 0 12 C-6.22680412 13.31720856 -6.22680412 13.31720856 -9.4375 12 C-11 10 -11 10 -11.5 6.5625 C-11 3 -11 3 -9.4375 0.5 C-6.01717697 -1.60481417 -3.80835623 -0.87885144 0 0 Z " fill="#E24543" transform="translate(98,31)"/>
<path d="M0 0 C1.32 0 2.64 0 4 0 C4.07347656 0.95712891 4.07347656 0.95712891 4.1484375 1.93359375 C4.22320312 2.75988281 4.29796875 3.58617187 4.375 4.4375 C4.44460937 5.26121094 4.51421875 6.08492187 4.5859375 6.93359375 C4.72257812 7.61550781 4.85921875 8.29742187 5 9 C5.66 9.33 6.32 9.66 7 10 C7 6.7 7 3.4 7 0 C8.65 0.33 10.3 0.66 12 1 C12.31608392 10.48251748 12.31608392 10.48251748 10 13 C6.5625 13.9375 6.5625 13.9375 3 14 C1.2890625 12.859375 1.2890625 12.859375 0 11 C-0.29296875 8.30078125 -0.29296875 8.30078125 -0.1875 5.3125 C-0.16042969 4.31863281 -0.13335937 3.32476562 -0.10546875 2.30078125 C-0.07066406 1.54152344 -0.03585938 0.78226563 0 0 Z " fill="#E16768" transform="translate(117,30)"/>
<path d="M0 0 C2.35546875 0.1953125 2.35546875 0.1953125 5 1 C6.36328125 3.1796875 6.36328125 3.1796875 7.3125 5.875 C7.63863281 6.75929688 7.96476562 7.64359375 8.30078125 8.5546875 C9 11 9 11 9 14 C7.35 14 5.7 14 4 14 C4 13.34 4 12.68 4 12 C2.68 12 1.36 12 0 12 C0 12.66 0 13.32 0 14 C-1.32 14 -2.64 14 -4 14 C-3.46148032 8.72250715 -2.22656164 4.74354436 0 0 Z " fill="#E31F1F" transform="translate(75,30)"/>
<path d="M0 0 C1.65 0 3.3 0 5 0 C5.67260351 1.76858691 6.33788395 3.53996016 7 5.3125 C7.37125 6.29863281 7.7425 7.28476562 8.125 8.30078125 C9 11 9 11 9 14 C7.783125 13.814375 6.56625 13.62875 5.3125 13.4375 C1.97022061 13.01006818 -0.71968417 13.07741117 -4 14 C-3.36843005 8.94744036 -1.86540627 4.70406799 0 0 Z " fill="#E33A3A" transform="translate(136,30)"/>
<path d="M0 0 C0.87816497 3.73220113 1.25563551 7.16546731 1 11 C-1 13 -1 13 -4 13.25 C-7 13 -7 13 -9 11 C-9.4140625 8.6171875 -9.4140625 8.6171875 -9.625 5.875 C-9.69976562 4.96492187 -9.77453125 4.05484375 -9.8515625 3.1171875 C-9.90054688 2.41851562 -9.94953125 1.71984375 -10 1 C-6.25712373 -1.13181214 -4.21015871 -0.95685425 0 0 Z " fill="#5D4E97" transform="translate(164,10)"/>
<path d="M0 0 C1.52519276 0.08937803 3.04681929 0.24537146 4.5625 0.4375 C5.80193359 0.59025391 5.80193359 0.59025391 7.06640625 0.74609375 C7.70449219 0.82988281 8.34257812 0.91367188 9 1 C9.80172639 5.40949513 10 9.52015926 10 14 C6.7 14 3.4 14 0 14 C-0.19393875 11.85473901 -0.37998676 9.70876323 -0.5625 7.5625 C-0.71912109 5.77005859 -0.71912109 5.77005859 -0.87890625 3.94140625 C-0.91886719 2.97074219 -0.95882812 2.00007812 -1 1 C-0.67 0.67 -0.34 0.34 0 0 Z M4 4 C4 4.66 4 5.32 4 6 C4.66 5.67 5.32 5.34 6 5 C5.34 4.67 4.68 4.34 4 4 Z " fill="#513E96" transform="translate(141,9)"/>
<path d="M0 0 C3.625 0.375 3.625 0.375 7 1 C7.5534764 3.07553648 8 4.84365964 8 7 C8.04125 7.825 8.0825 8.65 8.125 9.5 C8 12 8 12 6 14 C3 14.25 3 14.25 0 14 C-0.66 13.34 -1.32 12.68 -2 12 C-1.5625 9.9375 -1.5625 9.9375 -1 8 C-1.33 7.67 -1.66 7.34 -2 7 C-2.1875 4.5625 -2.1875 4.5625 -2 2 C-1.34 1.34 -0.68 0.68 0 0 Z " fill="#DE6363" transform="translate(186,30)"/>
<path d="M0 0 C2.05078125 0.03255208 4.1015625 0.06510417 6.15234375 0.09765625 C6.15234375 4.71765625 6.15234375 9.33765625 6.15234375 14.09765625 C0 14.1953125 0 14.1953125 -1.84765625 14.09765625 C-2.84765625 13.09765625 -2.84765625 13.09765625 -2.98046875 10.41015625 C-2.97789062 9.31703125 -2.9753125 8.22390625 -2.97265625 7.09765625 C-2.97523438 6.00453125 -2.9778125 4.91140625 -2.98046875 3.78515625 C-2.80072704 0.14802997 -2.80072704 0.14802997 0 0 Z " fill="#E87777" transform="translate(173.84765625,29.90234375)"/>
<path d="M0 0 C3.12268403 2.08178935 3.50418575 2.55671137 4.6875 5.875 C5.06455078 6.89207031 5.06455078 6.89207031 5.44921875 7.9296875 C6 10 6 10 6 14 C4.68 14 3.36 14 2 14 C2 13.34 2 12.68 2 12 C1.2575 12.33 0.515 12.66 -0.25 13 C-3 14 -3 14 -7 14 C-6.52343588 12.20763933 -6.04366502 10.41613103 -5.5625 8.625 C-5.29566406 7.62726562 -5.02882812 6.62953125 -4.75390625 5.6015625 C-4 3 -4 3 -3 1 C-2.01 0.67 -1.02 0.34 0 0 Z " fill="#483493" transform="translate(175,9)"/>
<path d="M0 0 C1.32 0 2.64 0 4 0 C4 3.3 4 6.6 4 10 C4.99 10 5.98 10 7 10 C7 7.03 7 4.06 7 1 C7.66 0.67 8.32 0.34 9 0 C9.66 0.33 10.32 0.66 11 1 C11.08121924 2.60332791 11.13929134 4.20784026 11.1875 5.8125 C11.22230469 6.70582031 11.25710937 7.59914063 11.29296875 8.51953125 C11 11 11 11 9.71484375 12.83984375 C8 14 8 14 4.375 13.75 C1 13 1 13 0 12 C-0.26013181 10.1732966 -0.45923072 8.33767093 -0.625 6.5 C-0.72039062 5.4996875 -0.81578125 4.499375 -0.9140625 3.46875 C-0.95660156 2.24671875 -0.95660156 2.24671875 -1 1 C-0.67 0.67 -0.34 0.34 0 0 Z " fill="#39238B" transform="translate(72,9)"/>
<path d="M0 0 C1.9375 0.125 1.9375 0.125 4 1 C5.25 3.5625 5.25 3.5625 6 6 C6.99 4.02 7.98 2.04 9 0 C9.99 0 10.98 0 12 0 C13.39832283 4.19496848 11.79443468 6.06604704 10 10 C9.62691369 11.32276056 9.26953585 12.65232077 9 14 C7.02 14 5.04 14 3 14 C1.68 9.71 0.36 5.42 -1 1 C-0.67 0.67 -0.34 0.34 0 0 Z " fill="#523B9B" transform="translate(112,9)"/>
<path d="M0 0 C2.64 0.33 5.28 0.66 8 1 C8 5.29 8 9.58 8 14 C5.36 14 2.72 14 0 14 C0 9.38 0 4.76 0 0 Z " fill="#523F98" transform="translate(128,9)"/>
<path d="M0 0 C3.3 0 6.6 0 10 0 C10.33 1.32 10.66 2.64 11 4 C10.01 4.33 9.02 4.66 8 5 C8 7.64 8 10.28 8 13 C6.35 13.33 4.7 13.66 3 14 C3 10.7 3 7.4 3 4 C2.01 4 1.02 4 0 4 C0 2.68 0 1.36 0 0 Z " fill="#E37676" transform="translate(103,30)"/>
<path d="M0 0 C1.32 0.33 2.64 0.66 4 1 C4 3.97 4 6.94 4 10 C5.32 10 6.64 10 8 10 C8 11.32 8 12.64 8 14 C5.36 14 2.72 14 0 14 C0 9.38 0 4.76 0 0 Z " fill="#493292" transform="translate(185,9)"/>
<path d="M0 0 C1.98 0.495 1.98 0.495 4 1 C4 5.29 4 9.58 4 14 C2.35 14 0.7 14 -1 14 C-1.02685938 11.85423363 -1.04633088 9.70837355 -1.0625 7.5625 C-1.07410156 6.36753906 -1.08570312 5.17257812 -1.09765625 3.94140625 C-1 1 -1 1 0 0 Z " fill="#7061AA" transform="translate(104,9)"/>
<path d="M0 0 C0.66 1.65 1.32 3.3 2 5 C-2.75 5.125 -2.75 5.125 -5 4 C-7.09821215 4.39938767 -7.09821215 4.39938767 -9 5 C-9.33 6.65 -9.66 8.3 -10 10 C-10.33 10 -10.66 10 -11 10 C-11.47945205 3.76712329 -11.47945205 3.76712329 -9.4375 0.5 C-6.01717697 -1.60481417 -3.80835623 -0.87885144 0 0 Z " fill="#E25859" transform="translate(98,31)"/>
<path d="M0 0 C1.32 0 2.64 0 4 0 C4.33 4.29 4.66 8.58 5 13 C3.35 13.33 1.7 13.66 0 14 C0 9.38 0 4.76 0 0 Z " fill="#DF3E3E" transform="translate(163,30)"/>
<path d="M0 0 C1.32 0 2.64 0 4 0 C4 3.63 4 7.26 4 11 C4.99 11 5.98 11 7 11 C7 11.66 7 12.32 7 13 C4.625 13.125 4.625 13.125 2 13 C0 11 0 11 -0.1953125 8.3984375 C-0.17210938 7.40070312 -0.14890625 6.40296875 -0.125 5.375 C-0.10695313 4.37210938 -0.08890625 3.36921875 -0.0703125 2.3359375 C-0.04710938 1.56507812 -0.02390625 0.79421875 0 0 Z " fill="#E13434" transform="translate(117,30)"/>
<path d="M0 0 C0.33 0 0.66 0 1 0 C1 4.62 1 9.24 1 14 C-0.65 13.67 -2.3 13.34 -4 13 C-4.33 11.02 -4.66 9.04 -5 7 C-4.34 7 -3.68 7 -3 7 C-2.690625 6.030625 -2.38125 5.06125 -2.0625 4.0625 C-1 1 -1 1 0 0 Z " fill="#371C89" transform="translate(98,9)"/>
<path d="M0 0 C2.31 0 4.62 0 7 0 C5.68 0.33 4.36 0.66 3 1 C3 2.32 3 3.64 3 5 C4.32 5 5.64 5 7 5 C7 5.99 7 6.98 7 8 C6.01 8 5.02 8 4 8 C3.67 9.32 3.34 10.64 3 12 C2.01 12 1.02 12 0 12 C0 8.04 0 4.08 0 0 Z " fill="#2E1787" transform="translate(141,11)"/>
<path d="M0 0 C0.33 0.99 0.66 1.98 1 3 C2.32 3 3.64 3 5 3 C5 3.66 5 4.32 5 5 C3.68 5 2.36 5 1 5 C1 5.66 1 6.32 1 7 C2.65 7 4.3 7 6 7 C6 8.32 6 9.64 6 11 C3.36 11 0.72 11 -2 11 C-1.34 7.37 -0.68 3.74 0 0 Z " fill="#E13232" transform="translate(174,33)"/>
<path d="M0 0 C2.31 0 4.62 0 7 0 C6.38125 0.04125 5.7625 0.0825 5.125 0.125 C4.42375 0.41375 3.7225 0.7025 3 1 C1.6954344 3.99615946 1.6954344 3.99615946 1 7 C1.66 7 2.32 7 3 7 C3 7.66 3 8.32 3 9 C4.65 9 6.3 9 8 9 C8 9.99 8 10.98 8 12 C5.36 12 2.72 12 0 12 C0 8.04 0 4.08 0 0 Z " fill="#2A1382" transform="translate(128,11)"/>
<path d="M0 0 C0.99 0.33 1.98 0.66 3 1 C3 4.3 3 7.6 3 11 C1.68 11.33 0.36 11.66 -1 12 C-1.02687279 10.18757948 -1.04633715 8.37504767 -1.0625 6.5625 C-1.07410156 5.55316406 -1.08570312 4.54382813 -1.09765625 3.50390625 C-1 1 -1 1 0 0 Z " fill="#382387" transform="translate(80,9)"/>
<path d="M0 0 C1.32 0.33 2.64 0.66 4 1 C3.125 5.875 3.125 5.875 2 7 C0.00041636 7.04080783 -2.00045254 7.04254356 -4 7 C-4.66 5.68 -5.32 4.36 -6 3 C-3.03 3.495 -3.03 3.495 0 4 C0 2.68 0 1.36 0 0 Z " fill="#4D3A97" transform="translate(161,16)"/>
<path d="M0 0 C0.99 0.33 1.98 0.66 3 1 C3 1.66 3 2.32 3 3 C4.65 3 6.3 3 8 3 C8 3.99 8 4.98 8 6 C8.99 6 9.98 6 11 6 C11.33 5.34 11.66 4.68 12 4 C12 4.99 12 5.98 12 7 C10.35 7 8.7 7 7 7 C7 6.34 7 5.68 7 5 C5.68 5 4.36 5 3 5 C3 5.66 3 6.32 3 7 C1.68 7 0.36 7 -1 7 C-0.67 4.69 -0.34 2.38 0 0 Z " fill="#E25C5E" transform="translate(72,37)"/>
<path d="M0 0 C2.64 0 5.28 0 8 0 C7.01 0.495 7.01 0.495 6 1 C6.33 4.3 6.66 7.6 7 11 C5.68 11 4.36 11 3 11 C3 7.7 3 4.4 3 1 C2.01 0.67 1.02 0.34 0 0 Z " fill="#DE1F1E" transform="translate(104,32)"/>
<path d="M0 0 C0.99 0.33 1.98 0.66 3 1 C3.042721 2.66611905 3.04063832 4.33382885 3 6 C2 7 2 7 -1.0625 7.0625 C-2.031875 7.041875 -3.00125 7.02125 -4 7 C-4.33 5.68 -4.66 4.36 -5 3 C-3.68 3 -2.36 3 -1 3 C-0.67 2.01 -0.34 1.02 0 0 Z " fill="#E44947" transform="translate(190,37)"/>
<path d="M0 0 C3.12259437 3.12259437 3.14293342 6.71466712 4 11 C1.03 10.67 -1.94 10.34 -5 10 C-5 9.34 -5 8.68 -5 8 C-3.35 7.34 -1.7 6.68 0 6 C0 4.02 0 2.04 0 0 Z " fill="#E66363" transform="translate(141,33)"/>
<path d="M0 0 C2.31 0 4.62 0 7 0 C7 0.66 7 1.32 7 2 C5.35 2 3.7 2 2 2 C2.185625 2.9075 2.37125 3.815 2.5625 4.75 C2.95734621 7.68314324 2.94691572 9.2644657 2 12 C1.34 12 0.68 12 0 12 C0 8.04 0 4.08 0 0 Z " fill="#E3191A" transform="translate(150,31)"/>
<path d="M0 0 C0 2.31 0 4.62 0 7 C-1.98 7 -3.96 7 -6 7 C-6.33 5.02 -6.66 3.04 -7 1 C-6.67 1.66 -6.34 2.32 -6 3 C-5.34 3 -4.68 3 -4 3 C-4 2.34 -4 1.68 -4 1 C-1 0 -1 0 0 0 Z " fill="#3E298B" transform="translate(121,16)"/>
<path d="M0 0 C1.65 0.33 3.3 0.66 5 1 C5.66 3.31 6.32 5.62 7 8 C6.01 7.67 5.02 7.34 4 7 C4 7.66 4 8.32 4 9 C3.01 9 2.02 9 1 9 C1 7.68 1 6.36 1 5 C1.99 5 2.98 5 4 5 C4 4.01 4 3.02 4 2 C2.35 2.33 0.7 2.66 -1 3 C-0.67 2.01 -0.34 1.02 0 0 Z " fill="#E05D5D" transform="translate(75,30)"/>
<path d="M0 0 C0.625 1.875 0.625 1.875 1 4 C0.34 4.66 -0.32 5.32 -1 6 C-1.66 5.67 -2.32 5.34 -3 5 C-3 6.32 -3 7.64 -3 9 C-5.97 8.505 -5.97 8.505 -9 8 C-8.67 7.34 -8.34 6.68 -8 6 C-7.01 6 -6.02 6 -5 6 C-5.33 4.68 -5.66 3.36 -6 2 C-4.02 2 -2.04 2 0 2 C0 1.34 0 0.68 0 0 Z " fill="#7765AA" transform="translate(164,11)"/>
<path d="M0 0 C0.99 0.66 1.98 1.32 3 2 C2.67 3.32 2.34 4.64 2 6 C1.01 6 0.02 6 -1 6 C-1.33 6.99 -1.66 7.98 -2 9 C-3.35439668 6.29120665 -3.06501451 3.99066732 -3 1 C-2.01 0.67 -1.02 0.34 0 0 Z " fill="#3C268D" transform="translate(175,9)"/>
<path d="M0 0 C0.33 1.32 0.66 2.64 1 4 C1.99 4 2.98 4 4 4 C3.67 6.64 3.34 9.28 3 12 C2.01 12 1.02 12 0 12 C0 8.04 0 4.08 0 0 Z " fill="#301A84" transform="translate(88,11)"/>
<path d="M0 0 C0.103125 0.639375 0.20625 1.27875 0.3125 1.9375 C0.539375 2.618125 0.76625 3.29875 1 4 C1.99 4.33 2.98 4.66 4 5 C4 5.99 4 6.98 4 8 C2.35 7.67 0.7 7.34 -1 7 C-1.33 5.02 -1.66 3.04 -2 1 C-1.34 0.67 -0.68 0.34 0 0 Z " fill="#E33B3B" transform="translate(155,36)"/>
<path d="M0 0 C2.64 0 5.28 0 8 0 C8.33 0.66 8.66 1.32 9 2 C7.02 2 5.04 2 3 2 C3 2.66 3 3.32 3 4 C3.66 4.33 4.32 4.66 5 5 C3.35 5 1.7 5 0 5 C0 3.35 0 1.7 0 0 Z " fill="#E12726" transform="translate(184,32)"/>
<path d="M0 0 C1.5 1.3125 1.5 1.3125 3 3 C3 3.99 3 4.98 3 6 C0.69 6 -1.62 6 -4 6 C-4 4.35 -4 2.7 -4 1 C-2.68 1.33 -1.36 1.66 0 2 C0 1.34 0 0.68 0 0 Z " fill="#594798" transform="translate(148,17)"/>
<path d="M0 0 C0.33 1.32 0.66 2.64 1 4 C-1.31 5.98 -3.62 7.96 -6 10 C-4.80655062 5.22620248 -3.20354235 3.61425291 0 0 Z " fill="#E13E3F" transform="translate(36,16)"/>
<path d="M0 0 C1.051875 0.4640625 1.051875 0.4640625 2.125 0.9375 C5.08936657 2.03302678 7.87698108 2.56422992 11 3 C11 3.33 11 3.66 11 4 C10.31292969 3.98839844 9.62585937 3.97679687 8.91796875 3.96484375 C8.01691406 3.95582031 7.11585937 3.94679687 6.1875 3.9375 C5.29417969 3.92589844 4.40085937 3.91429687 3.48046875 3.90234375 C0.86586209 3.88990033 0.86586209 3.88990033 -2 5 C-1.34 3.35 -0.68 1.7 0 0 Z " fill="#7B69AB" transform="translate(29,42)"/>
<path d="M0 0 C0.99 0 1.98 0 3 0 C2.67 2.97 2.34 5.94 2 9 C1.34 9 0.68 9 0 9 C0 6.03 0 3.06 0 0 Z " fill="#E11C1C" transform="translate(125,31)"/>
<path d="M0 0 C0.66 0 1.32 0 2 0 C2 5.94 2 11.88 2 18 C1.67 18 1.34 18 1 18 C1 13.05 1 8.1 1 3 C0.34 3 -0.32 3 -1 3 C-0.67 2.01 -0.34 1.02 0 0 Z " fill="#E1696E" transform="translate(46,4)"/>
<path d="M0 0 C5.625 -0.25 5.625 -0.25 9 2 C9 2.66 9 3.32 9 4 C7.35 4 5.7 4 4 4 C4 3.01 4 2.02 4 1 C2.68 0.67 1.36 0.34 0 0 Z " fill="#E43D3C" transform="translate(91,32)"/>
<path d="M0 0 C1.32 0.33 2.64 0.66 4 1 C4 2.32 4 3.64 4 5 C2.02 5 0.04 5 -2 5 C-1.34 4.67 -0.68 4.34 0 4 C0 2.68 0 1.36 0 0 Z " fill="#39238B" transform="translate(161,16)"/>
<path d="M0 0 C0.99 0 1.98 0 3 0 C3 1.98 3 3.96 3 6 C1.68 5.67 0.36 5.34 -1 5 C-0.67 3.35 -0.34 1.7 0 0 Z " fill="#331C88" transform="translate(156,11)"/>
<path d="M0 0 C0 0.66 0 1.32 0 2 C-1.53125 3.2890625 -1.53125 3.2890625 -3.5 4.625 C-4.1496875 5.07101563 -4.799375 5.51703125 -5.46875 5.9765625 C-5.9740625 6.31429688 -6.479375 6.65203125 -7 7 C-7 4 -7 4 -5.1875 1.8125 C-3 0 -3 0 0 0 Z " fill="#E13434" transform="translate(47,7)"/>
<path d="M0 0 C0.99 0.33 1.98 0.66 3 1 C3 2.65 3 4.3 3 6 C2.01 6 1.02 6 0 6 C0 4.02 0 2.04 0 0 Z " fill="#D61F1F" transform="translate(190,37)"/>
<path d="M0 0 C1.32 0 2.64 0 4 0 C4 0.66 4 1.32 4 2 C3.01 2 2.02 2 1 2 C1 5.3 1 8.6 1 12 C0.67 12 0.34 12 0 12 C-0.19401633 10.18818595 -0.38004375 8.37551468 -0.5625 6.5625 C-0.66691406 5.55316406 -0.77132812 4.54382813 -0.87890625 3.50390625 C-0.91886719 2.67761719 -0.95882812 1.85132813 -1 1 C-0.67 0.67 -0.34 0.34 0 0 Z " fill="#6B50AB" transform="translate(72,9)"/>
<path d="M0 0 C1.65 0 3.3 0 5 0 C5 0.99 5 1.98 5 3 C3.02 3 1.04 3 -1 3 C-0.67 2.01 -0.34 1.02 0 0 Z " fill="#2A127F" transform="translate(187,20)"/>
</svg>
